<svg width="35" height="35" viewBox="0 0 35 35" fill="none" xmlns="http://www.w3.org/2000/svg">
<g clip-path="url(#clip0_34_466)">
<path d="M17 0C13.6377 0 10.3509 0.997033 7.55531 2.86502C4.75968 4.733 2.58075 7.38804 1.29406 10.4944C0.00736578 13.6007 -0.329291 17.0189 0.326658 20.3165C0.982607 23.6142 2.6017 26.6433 4.97919 29.0208C7.35669 31.3983 10.3858 33.0174 13.6835 33.6733C16.9811 34.3293 20.3993 33.9926 23.5056 32.706C26.612 31.4193 29.267 29.2403 31.135 26.4447C33.003 23.6491 34 20.3623 34 17C33.9951 12.4928 32.2024 8.17167 29.0154 4.98462C25.8283 1.79757 21.5072 0.00492165 17 0ZM17 32.4062C13.9529 32.4062 10.9743 31.5027 8.44075 29.8098C5.90721 28.117 3.93255 25.7108 2.76649 22.8957C1.60043 20.0806 1.29533 16.9829 1.88978 13.9944C2.48424 11.0059 3.95154 8.26074 6.10614 6.10614C8.26075 3.95153 11.0059 2.48423 13.9944 1.88978C16.9829 1.29532 20.0806 1.60042 22.8957 2.76648C25.7108 3.93254 28.117 5.9072 29.8098 8.44075C31.5027 10.9743 32.4063 13.9529 32.4063 17C32.4013 21.0845 30.7766 25.0003 27.8884 27.8884C25.0003 30.7766 21.0845 32.4013 17 32.4062Z" fill="currentColor"/>
<path d="M23.9062 16.2031H17.7969V10.0938C17.7969 9.88241 17.7129 9.67972 17.5635 9.53027C17.414 9.38083 17.2113 9.29688 17 9.29688C16.7887 9.29688 16.586 9.38083 16.4365 9.53027C16.2871 9.67972 16.2031 9.88241 16.2031 10.0938V16.2031H10.0938C9.88241 16.2031 9.67972 16.2871 9.53027 16.4365C9.38083 16.586 9.29688 16.7887 9.29688 17C9.29688 17.2113 9.38083 17.414 9.53027 17.5635C9.67972 17.7129 9.88241 17.7969 10.0938 17.7969H16.2031V23.9062C16.2031 24.1176 16.2871 24.3203 16.4365 24.4697C16.586 24.6192 16.7887 24.7031 17 24.7031C17.2113 24.7031 17.414 24.6192 17.5635 24.4697C17.7129 24.3203 17.7969 24.1176 17.7969 23.9062V17.7969H23.9062C24.1176 17.7969 24.3203 17.7129 24.4697 17.5635C24.6192 17.414 24.7031 17.2113 24.7031 17C24.7031 16.7887 24.6192 16.586 24.4697 16.4365C24.3203 16.2871 24.1176 16.2031 23.9062 16.2031Z" fill="currentColor"/>
</g>
<defs>
<clipPath id="clip0_34_466">
<rect width="35" height="35" fill="currentColor"/>
</clipPath>
</defs>
</svg>
