<svg width="34" height="34" viewBox="0 0 34 34" fill="none" xmlns="http://www.w3.org/2000/svg">
<g clip-path="url(#clip0_5_1075)">
<path d="M27.4322 6.56767C27.9634 7.099 28.2618 7.81954 28.2618 8.57083C28.2618 9.32213 27.9634 10.0427 27.4322 10.574C28.0389 12.2685 28.173 14.0962 27.8201 15.8612C27.4673 17.6261 26.6407 19.2617 25.429 20.5927L22.4229 23.596C21.8754 24.2943 21.4995 25.1113 21.3256 25.9814C21.1516 26.8515 21.1844 27.7502 21.4213 28.6053L5.39453 12.58C6.24941 12.8167 7.14791 12.8493 8.01772 12.6754C8.88753 12.5014 9.70435 12.1257 10.4024 11.5784L13.4072 8.57083C14.7381 7.35918 16.3738 6.5326 18.1387 6.17972C19.9036 5.82683 21.7313 5.96094 23.4259 6.56767C23.9572 6.0365 24.6777 5.73811 25.429 5.73811C26.1803 5.73811 26.9009 6.0365 27.4322 6.56767Z" stroke="currentColor" stroke-width="2" stroke-linecap="round" stroke-linejoin="round"/>
<path d="M10.4027 17.5865L9.40115 18.5881C8.60405 19.3852 8.15625 20.4663 8.15625 21.5935C8.15625 22.7208 8.60405 23.8019 9.40115 24.599C10.1982 25.3961 11.2793 25.8439 12.4066 25.8439C13.5339 25.8439 14.615 25.3961 15.4121 24.599L16.4137 23.5974" stroke="currentColor" stroke-width="2" stroke-linecap="round" stroke-linejoin="round"/>
</g>
<defs>
<clipPath id="clip0_5_1075">
<rect width="34" height="34" fill="currentColor"/>
</clipPath>
</defs>
</svg>
